<svg width="266" height="87" viewBox="0 0 266 87" fill="none" xmlns="http://www.w3.org/2000/svg">
<path d="M161.076 21.4803C161.076 21.1738 161.195 20.9525 161.433 20.8163C161.706 20.6801 161.978 20.612 162.25 20.612C162.319 20.612 162.421 20.629 162.557 20.663C162.727 20.6971 162.829 20.7141 162.863 20.7141L164.6 43.1878C164.804 42.3706 165.077 41.6044 165.417 40.8894C165.758 40.1402 166.166 39.4933 166.643 38.9484C167.154 38.3696 167.75 37.9269 168.431 37.6205C169.112 37.314 169.929 37.1608 170.882 37.1608C172.04 37.1608 173.079 37.4502 173.998 38.0291C174.917 38.5739 175.684 39.2719 176.296 40.1232C176.943 40.9745 177.437 41.9449 177.778 43.0346C178.118 44.1242 178.288 45.1968 178.288 46.2524C178.288 47.7847 177.897 49.2659 177.114 50.6961C176.365 52.0921 175.377 53.335 174.151 54.4246C172.925 55.5143 171.546 56.3996 170.014 57.0806C168.516 57.7276 167.018 58.0511 165.519 58.0511C164.94 58.0511 164.498 57.8297 164.191 57.3871C163.919 56.9444 163.732 56.4337 163.629 55.8548C163.527 55.2419 163.476 54.646 163.476 54.0671C163.476 53.4542 163.459 52.9945 163.425 52.688C163.221 49.9299 163.017 47.308 162.812 44.8223C162.608 42.3025 162.404 39.8167 162.199 37.3651C162.029 34.9134 161.842 32.4277 161.637 29.9079C161.467 27.3881 161.28 24.7321 161.076 21.94V21.4803ZM170.525 38.9995C169.708 38.9995 168.993 39.3741 168.38 40.1232C167.767 40.8383 167.273 41.6725 166.898 42.626C166.558 43.5794 166.302 44.5669 166.132 45.5884C165.962 46.5759 165.86 47.3591 165.826 47.9379C165.792 48.2103 165.758 48.7381 165.724 49.5213C165.69 50.2704 165.656 51.0706 165.621 51.9219C165.621 52.7732 165.621 53.5904 165.621 54.3736C165.621 55.1227 165.621 55.6505 165.621 55.9569C166.745 55.9569 167.937 55.7016 169.197 55.1908C170.491 54.68 171.666 53.982 172.721 53.0967C173.811 52.2113 174.713 51.2068 175.428 50.0831C176.143 48.9254 176.501 47.7166 176.501 46.4567C176.501 45.7076 176.348 44.8904 176.041 44.005C175.735 43.1197 175.309 42.3195 174.764 41.6044C174.253 40.8553 173.623 40.2424 172.874 39.7657C172.159 39.2549 171.376 38.9995 170.525 38.9995ZM180.28 50.2874C180.28 49.6064 180.28 48.7041 180.28 47.5804C180.314 46.4226 180.4 45.1968 180.536 43.9029C180.672 42.5749 180.876 41.2299 181.149 39.8678C181.421 38.5058 181.813 37.2799 182.323 36.1903C182.834 35.1007 183.481 34.2154 184.264 33.5343C185.048 32.8533 186.018 32.5128 187.176 32.5128C188.776 32.5128 190.053 32.9555 191.006 33.8408C191.994 34.7261 192.743 35.8328 193.254 37.1608C193.799 38.4547 194.156 39.8508 194.326 41.349C194.531 42.8132 194.633 44.1412 194.633 45.333C194.633 46.627 194.446 48.023 194.071 49.5213C193.697 51.0195 193.118 52.3986 192.334 53.6585C191.551 54.9184 190.564 55.974 189.372 56.8252C188.214 57.6425 186.818 58.0511 185.184 58.0511C184.128 58.0511 183.277 57.8127 182.63 57.336C181.983 56.8252 181.489 56.1953 181.149 55.4462C180.842 54.697 180.621 53.8628 180.485 52.9434C180.349 52.024 180.28 51.1387 180.28 50.2874ZM182.017 49.6745C182.017 50.3215 182.034 51.0025 182.068 51.7176C182.102 52.3986 182.204 53.0456 182.375 53.6585C182.545 54.2714 182.851 54.7652 183.294 55.1397C183.737 55.5143 184.384 55.7016 185.235 55.7016C186.733 55.7016 187.959 55.361 188.912 54.68C189.9 53.999 190.683 53.1307 191.262 52.0751C191.841 50.9855 192.232 49.7937 192.437 48.4998C192.675 47.2058 192.794 45.963 192.794 44.7712C192.794 44.0221 192.726 43.0516 192.59 41.8598C192.488 40.668 192.249 39.5103 191.875 38.3866C191.5 37.2629 190.955 36.3095 190.24 35.5263C189.525 34.7091 188.589 34.3005 187.431 34.3005C186.614 34.3005 185.899 34.624 185.286 35.2709C184.707 35.9179 184.213 36.7522 183.805 37.7737C183.396 38.7952 183.073 39.9189 182.834 41.1447C182.63 42.3706 182.46 43.5453 182.323 44.669C182.187 45.7927 182.102 46.8142 182.068 47.7336C182.034 48.653 182.017 49.3 182.017 49.6745ZM196.523 52.688C196.523 51.7006 196.625 50.4747 196.829 49.0105C197.068 47.5463 197.391 46.0311 197.8 44.4647C198.242 42.8643 198.787 41.2639 199.434 39.6635C200.115 38.0631 200.881 36.633 201.733 35.3731C202.584 34.0791 203.554 33.0406 204.644 32.2574C205.734 31.4742 206.925 31.0827 208.219 31.0827C208.219 31.5594 208.015 32.0361 207.606 32.5128C207.232 32.9555 206.789 33.3981 206.278 33.8408C205.802 34.2494 205.308 34.658 204.797 35.0666C204.286 35.4412 203.929 35.7987 203.725 36.1392C202.907 37.1948 202.175 38.3696 201.528 39.6635C200.881 40.9234 200.319 42.2344 199.843 43.5964C199.366 44.9244 198.991 46.3035 198.719 47.7336C198.447 49.1297 198.31 50.4917 198.31 51.8197C198.31 52.024 198.344 52.3475 198.413 52.7902C198.481 53.1988 198.566 53.6244 198.668 54.0671C198.804 54.5098 198.974 54.9014 199.179 55.2419C199.383 55.5483 199.604 55.7016 199.843 55.7016H199.996C200.03 55.7016 200.064 55.6845 200.098 55.6505C201.018 54.6289 201.784 53.5223 202.397 52.3305C203.009 51.1387 203.537 49.9129 203.98 48.653C204.423 47.3591 204.797 46.0481 205.104 44.7201C205.41 43.3921 205.717 42.0811 206.023 40.7872C206.125 40.4126 206.159 39.8508 206.125 39.1017C206.125 38.3526 206.159 37.6205 206.227 36.9054C206.329 36.1903 206.517 35.5774 206.789 35.0666C207.062 34.5218 207.555 34.2494 208.27 34.2494C208.407 34.2494 208.56 34.2664 208.73 34.3005C208.934 34.3005 209.037 34.3175 209.037 34.3516C210.296 36.9735 211.369 39.2038 212.254 41.0426C213.14 42.8473 213.889 44.3455 214.502 45.5373C215.115 46.7291 215.608 47.6655 215.983 48.3465C216.357 49.0276 216.63 49.5553 216.8 49.9299C217.004 50.2704 217.141 50.5088 217.209 50.645C217.277 50.7471 217.311 50.8323 217.311 50.9004C217.345 51.0366 217.379 51.2919 217.413 51.6665C217.447 52.007 217.464 52.3816 217.464 52.7902C217.498 53.1648 217.515 53.5393 217.515 53.9139C217.549 54.2544 217.566 54.4757 217.566 54.5779C217.226 54.5779 216.851 54.5608 216.443 54.5268C216.034 54.4927 215.745 54.2714 215.574 53.8628L209.037 40.2764L208.475 39.6635C208.373 40.0381 208.168 40.7021 207.862 41.6555C207.589 42.6089 207.283 43.6305 206.942 44.7201C206.636 45.7757 206.346 46.7802 206.074 47.7336C205.802 48.687 205.614 49.351 205.512 49.7256C205.308 50.2364 205.036 50.9514 204.695 51.8708C204.389 52.7902 203.997 53.7096 203.52 54.6289C203.044 55.5483 202.499 56.3485 201.886 57.0295C201.273 57.7106 200.592 58.0511 199.843 58.0511C199.23 58.0511 198.719 57.8638 198.31 57.4892C197.902 57.0806 197.561 56.5869 197.289 56.008C197.017 55.4291 196.812 54.8333 196.676 54.2203C196.574 53.6074 196.523 53.0967 196.523 52.688ZM227.526 42.013C226.777 42.013 226.028 42.1152 225.279 42.3195C224.53 42.5238 223.781 42.7451 223.031 42.9835C222.316 43.1878 221.584 43.3921 220.835 43.5964C220.12 43.7667 219.371 43.8518 218.588 43.8518C218.145 43.8518 217.788 43.7667 217.515 43.5964C217.243 43.4262 217.107 43.0856 217.107 42.5749C217.107 42.1663 217.209 41.8939 217.413 41.7577C217.651 41.5874 217.924 41.5023 218.23 41.5023C218.571 41.4682 218.911 41.4682 219.252 41.5023C219.626 41.5363 219.916 41.5193 220.12 41.4512C220.393 41.3831 220.886 41.2639 221.601 41.0937C222.35 40.9234 223.134 40.7532 223.951 40.5829C224.768 40.4126 225.534 40.2424 226.249 40.0721C226.998 39.9019 227.509 39.7657 227.782 39.6635C227.782 39.5614 227.782 39.3911 227.782 39.1528C227.816 38.8803 227.833 38.6079 227.833 38.3355C227.867 38.0291 227.884 37.7567 227.884 37.5183V36.9565C227.884 35.9349 227.816 34.9475 227.679 33.994C227.543 33.0065 227.39 32.0191 227.22 31.0316C227.084 30.0441 226.947 29.0566 226.811 28.0691C226.675 27.0817 226.607 26.0942 226.607 25.1067C226.607 24.7662 226.641 24.4427 226.709 24.1362C226.811 23.7957 227.084 23.6255 227.526 23.6255C227.696 23.6255 227.867 23.6766 228.037 23.7787C228.241 23.8468 228.36 24 228.395 24.2384L230.182 38.9995C230.216 39.0336 230.25 39.0506 230.284 39.0506H230.438C230.778 39.0506 231.306 38.9655 232.021 38.7952C232.736 38.625 233.536 38.4207 234.422 38.1823C235.307 37.9439 236.243 37.6886 237.231 37.4162C238.252 37.1437 239.223 36.9054 240.142 36.7011C241.062 36.4627 241.896 36.2925 242.645 36.1903C243.394 36.0541 243.973 36.0371 244.381 36.1392C244.518 36.1733 244.739 36.3435 245.045 36.65C245.352 36.9224 245.539 37.1267 245.607 37.2629C245.675 37.6034 245.386 37.9439 244.739 38.2845C244.092 38.5909 243.241 38.8974 242.185 39.2038C241.164 39.4762 240.023 39.7316 238.763 39.97C237.503 40.2083 236.294 40.4297 235.137 40.634C234.013 40.8042 233.042 40.9745 232.225 41.1447C231.408 41.2809 230.914 41.3831 230.744 41.4512V42.4727C230.744 42.9154 230.727 43.4091 230.693 43.9539C230.693 44.4647 230.693 44.9585 230.693 45.4352V46.4567C230.693 48.1933 230.812 49.8959 231.051 51.5644C231.289 53.1988 231.408 54.8503 231.408 56.5188C231.408 56.7571 231.34 56.9614 231.204 57.1317C231.068 57.2679 230.897 57.4041 230.693 57.5403C230.489 57.6425 230.284 57.7446 230.08 57.8468C229.876 57.9149 229.723 57.9659 229.62 58C229.348 56.5358 229.144 55.2078 229.007 54.016C228.905 52.7902 228.82 51.5814 228.752 50.3896C228.718 49.1978 228.667 47.9379 228.599 46.6099C228.565 45.2479 228.497 43.7156 228.395 42.013H227.526ZM241.981 34.7602C242.185 34.7602 242.407 34.8283 242.645 34.9645C242.917 35.1007 243.088 35.288 243.156 35.5263L246.731 53.2499C247.14 53.8628 247.429 54.3565 247.599 54.7311C247.804 55.1057 247.906 55.5994 247.906 56.2123C247.906 56.5188 247.855 56.9104 247.753 57.3871C247.65 57.8297 247.412 58.0511 247.037 58.0511H246.833C246.765 58.0511 246.731 58.0341 246.731 58C246.663 57.9659 246.561 57.8978 246.425 57.7957L245.658 57.0295C245.556 56.9274 245.505 56.8593 245.505 56.8252L241.981 36.65V34.7602ZM241.113 23.319C241.862 23.319 242.407 23.4212 242.747 23.6255C243.122 23.7957 243.309 24.2384 243.309 24.9535C243.309 25.1918 243.292 25.4813 243.258 25.8218C243.224 26.1623 243.019 26.3836 242.645 26.4858C241.964 26.2134 241.538 25.7707 241.368 25.1578C241.198 24.5449 241.113 23.9319 241.113 23.319ZM249.898 50.2874C249.898 49.6064 249.898 48.7041 249.898 47.5804C249.932 46.4226 250.017 45.1968 250.153 43.9029C250.289 42.5749 250.494 41.2299 250.766 39.8678C251.038 38.5058 251.43 37.2799 251.941 36.1903C252.452 35.1007 253.099 34.2154 253.882 33.5343C254.665 32.8533 255.635 32.5128 256.793 32.5128C258.393 32.5128 259.67 32.9555 260.624 33.8408C261.611 34.7261 262.36 35.8328 262.871 37.1608C263.416 38.4547 263.774 39.8508 263.944 41.349C264.148 42.8132 264.25 44.1412 264.25 45.333C264.25 46.627 264.063 48.023 263.688 49.5213C263.314 51.0195 262.735 52.3986 261.952 53.6585C261.169 54.9184 260.181 55.974 258.989 56.8252C257.832 57.6425 256.436 58.0511 254.801 58.0511C253.746 58.0511 252.894 57.8127 252.247 57.336C251.6 56.8252 251.107 56.1953 250.766 55.4462C250.46 54.697 250.238 53.8628 250.102 52.9434C249.966 52.024 249.898 51.1387 249.898 50.2874ZM251.634 49.6745C251.634 50.3215 251.651 51.0025 251.685 51.7176C251.719 52.3986 251.822 53.0456 251.992 53.6585C252.162 54.2714 252.469 54.7652 252.911 55.1397C253.354 55.5143 254.001 55.7016 254.852 55.7016C256.35 55.7016 257.576 55.361 258.53 54.68C259.517 53.999 260.3 53.1307 260.879 52.0751C261.458 50.9855 261.85 49.7937 262.054 48.4998C262.292 47.2058 262.412 45.963 262.412 44.7712C262.412 44.0221 262.343 43.0516 262.207 41.8598C262.105 40.668 261.867 39.5103 261.492 38.3866C261.118 37.2629 260.573 36.3095 259.858 35.5263C259.143 34.7091 258.206 34.3005 257.048 34.3005C256.231 34.3005 255.516 34.624 254.903 35.2709C254.324 35.9179 253.831 36.7522 253.422 37.7737C253.013 38.7952 252.69 39.9189 252.452 41.1447C252.247 42.3706 252.077 43.5453 251.941 44.669C251.805 45.7927 251.719 46.8142 251.685 47.7336C251.651 48.653 251.634 49.3 251.634 49.6745Z" fill="#1C1A31"/>
<path d="M90.1872 42.013C89.4381 42.013 88.689 42.1152 87.9398 42.3195C87.1907 42.5238 86.4416 42.7451 85.6925 42.9835C84.9774 43.1878 84.2453 43.3921 83.4962 43.5964C82.7811 43.7667 82.032 43.8518 81.2488 43.8518C80.8061 43.8518 80.4486 43.7667 80.1762 43.5964C79.9038 43.4262 79.7676 43.0856 79.7676 42.5749C79.7676 42.1663 79.8697 41.8939 80.0741 41.7577C80.3124 41.5874 80.5848 41.5023 80.8913 41.5023C81.2318 41.4682 81.5723 41.4682 81.9128 41.5023C82.2874 41.5363 82.5768 41.5193 82.7811 41.4512C83.0535 41.3831 83.5473 41.2639 84.2623 41.0937C85.0115 40.9234 85.7946 40.7532 86.6118 40.5829C87.4291 40.4126 88.1952 40.2424 88.9103 40.0721C89.6594 39.9019 90.1702 39.7657 90.4426 39.6635C90.4426 39.5614 90.4426 39.3911 90.4426 39.1528C90.4766 38.8803 90.4937 38.6079 90.4937 38.3355C90.5277 38.0291 90.5447 37.7567 90.5447 37.5183V36.9565C90.5447 35.9349 90.4766 34.9475 90.3404 33.994C90.2042 33.0065 90.051 32.0191 89.8807 31.0316C89.7445 30.0441 89.6083 29.0566 89.4721 28.0691C89.3359 27.0817 89.2678 26.0942 89.2678 25.1067C89.2678 24.7662 89.3019 24.4427 89.37 24.1362C89.4721 23.7957 89.7445 23.6255 90.1872 23.6255C90.3575 23.6255 90.5277 23.6766 90.698 23.7787C90.9023 23.8468 91.0215 24 91.0555 24.2384L92.8432 38.9995C92.8772 39.0336 92.9113 39.0506 92.9453 39.0506H93.0986C93.4391 39.0506 93.9669 38.9655 94.6819 38.7952C95.397 38.625 96.1972 38.4207 97.0825 38.1823C97.9679 37.9439 98.9043 37.6886 99.8918 37.4162C100.913 37.1437 101.884 36.9054 102.803 36.7011C103.722 36.4627 104.557 36.2925 105.306 36.1903C106.055 36.0541 106.634 36.0371 107.042 36.1392C107.179 36.1733 107.4 36.3435 107.706 36.65C108.013 36.9224 108.2 37.1267 108.268 37.2629C108.336 37.6034 108.047 37.9439 107.4 38.2845C106.753 38.5909 105.902 38.8974 104.846 39.2038C103.825 39.4762 102.684 39.7316 101.424 39.97C100.164 40.2083 98.9553 40.4297 97.7976 40.634C96.6739 40.8042 95.7035 40.9745 94.8863 41.1447C94.069 41.2809 93.5753 41.3831 93.405 41.4512V42.4727C93.405 42.9154 93.388 43.4091 93.354 43.9539C93.354 44.4647 93.354 44.9585 93.354 45.4352V46.4567C93.354 48.1933 93.4731 49.8959 93.7115 51.5644C93.9498 53.1988 94.069 54.8503 94.069 56.5188C94.069 56.7571 94.0009 56.9614 93.8647 57.1317C93.7285 57.2679 93.5583 57.4041 93.354 57.5403C93.1496 57.6425 92.9453 57.7446 92.741 57.8468C92.5367 57.9149 92.3835 57.9659 92.2813 58C92.0089 56.5358 91.8046 55.2078 91.6684 54.016C91.5663 52.7902 91.4811 51.5814 91.413 50.3896C91.379 49.1978 91.3279 47.9379 91.2598 46.6099C91.2258 45.2479 91.1577 43.7156 91.0555 42.013H90.1872ZM104.795 18.6711L106.991 18.3135L109.341 46.1502C109.579 44.9925 109.937 43.7326 110.414 42.3706C110.89 41.0085 111.52 39.7657 112.303 38.642C113.121 37.5183 114.108 36.65 115.266 36.0371C116.458 35.3901 117.837 35.2199 119.403 35.5263C120.493 35.6966 121.429 36.1222 122.212 36.8032C123.029 37.4502 123.727 38.2504 124.306 39.2038C124.885 40.1573 125.345 41.2128 125.685 42.3706C126.06 43.4943 126.349 44.652 126.554 45.8438C126.758 47.0015 126.894 48.1252 126.962 49.2148C127.064 50.3045 127.116 51.2579 127.116 52.0751C127.116 52.7902 127.047 53.2839 126.911 53.5563C126.809 53.7947 126.503 53.9139 125.992 53.9139C125.754 53.9139 125.515 53.8969 125.277 53.8628C125.038 53.7947 124.868 53.5904 124.766 53.2499C124.834 52.6029 124.868 51.7516 124.868 50.6961C124.868 49.6405 124.8 48.5508 124.664 47.4272C124.562 46.3035 124.374 45.1798 124.102 44.0561C123.83 42.8984 123.438 41.8598 122.927 40.9404C122.451 40.0211 121.821 39.289 121.037 38.7441C120.254 38.1653 119.318 37.8758 118.228 37.8758C117.105 37.8758 116.117 38.1312 115.266 38.642C114.449 39.1187 113.751 39.7486 113.172 40.5318C112.627 41.315 112.184 42.2003 111.844 43.1878C111.503 44.1412 111.265 45.1287 111.129 46.1502C111.129 46.4226 111.095 46.8653 111.026 47.4782C110.992 48.0571 110.941 48.7211 110.873 49.4702C110.805 50.1853 110.754 50.9685 110.72 51.8197C110.686 52.637 110.652 53.4201 110.618 54.1693C110.584 54.8843 110.55 55.5313 110.516 56.1102C110.516 56.689 110.516 57.1147 110.516 57.3871C110.414 57.7276 110.26 57.9319 110.056 58C109.852 58.0341 109.613 58.0511 109.341 58.0511C109.307 58.0511 109.205 58.0341 109.034 58C108.898 58 108.796 58 108.728 58L104.795 18.6711ZM130.384 46.1502C129.601 46.627 128.801 47.0015 127.984 47.2739C127.167 47.5123 126.503 47.342 125.992 46.7632C125.992 46.1162 126.213 45.6906 126.656 45.4862C127.099 45.2479 127.592 45.0606 128.137 44.9244C128.716 44.7882 129.278 44.6179 129.823 44.4136C130.401 44.2093 130.793 43.8007 130.997 43.1878C131.202 42.5068 131.389 41.6896 131.559 40.7361C131.729 39.7827 131.968 38.8633 132.274 37.978C132.581 37.0927 133.023 36.3606 133.602 35.7817C134.181 35.1688 134.981 34.8623 136.003 34.8623C136.582 34.8623 137.297 35.0666 138.148 35.4752C139.033 35.8498 139.868 36.3095 140.651 36.8543C141.434 37.3991 142.098 37.978 142.643 38.5909C143.188 39.2038 143.46 39.7657 143.46 40.2764C143.46 40.5148 143.426 40.7361 143.358 40.9404C143.324 41.1447 143.154 41.315 142.847 41.4512L132.785 44.9244L132.734 45.1798C132.734 45.316 132.717 45.5033 132.683 45.7416V46.3545C132.683 46.5929 132.683 46.7632 132.683 46.8653C132.683 47.5463 132.734 48.3976 132.836 49.4191C132.938 50.4066 133.143 51.3771 133.449 52.3305C133.79 53.2499 134.249 54.0501 134.828 54.7311C135.407 55.4121 136.19 55.7526 137.178 55.7526C137.552 55.7526 137.859 55.6845 138.097 55.5483C138.369 55.3781 138.625 55.2078 138.863 55.0376C139.136 54.8333 139.391 54.663 139.629 54.5268C139.902 54.3565 140.208 54.2714 140.549 54.2714C140.549 54.7822 140.43 55.2759 140.191 55.7526C139.987 56.1953 139.697 56.5869 139.323 56.9274C138.948 57.2679 138.523 57.5403 138.046 57.7446C137.569 57.9489 137.093 58.0511 136.616 58.0511C135.322 58.0511 134.283 57.6084 133.5 56.7231C132.717 55.8037 132.104 54.7141 131.661 53.4542C131.253 52.1602 130.963 50.8493 130.793 49.5213C130.623 48.1593 130.487 47.0356 130.384 46.1502ZM136.616 37.1097C136.003 37.1097 135.475 37.2799 135.032 37.6205C134.624 37.961 134.283 38.3866 134.011 38.8974C133.738 39.4081 133.534 39.97 133.398 40.5829C133.296 41.1618 133.245 41.6896 133.245 42.1663C133.79 42.1663 134.385 42.1322 135.032 42.0641C135.713 41.996 136.377 41.8598 137.024 41.6555C137.671 41.4512 138.25 41.1958 138.761 40.8894C139.306 40.5488 139.68 40.1402 139.885 39.6635C139.374 38.8463 138.897 38.2163 138.455 37.7737C138.012 37.331 137.399 37.1097 136.616 37.1097Z" fill="#1C1A31"/>
<path d="M30.2433 36.9207L13.4508 27.0125L30.2433 8.21893V36.9207ZM50.8176 27.0145L34.044 36.9097L34.0232 36.9182V8.21893L50.8176 27.0145ZM7.94386 52.3393L0.090677 27.3172C-0.42592 25.6712 1.36803 24.2579 2.85802 25.1371L28.424 40.222L8.44945 52.0078C8.27194 52.1125 8.10348 52.2232 7.94386 52.3393ZM61.4042 25.1438C62.8942 24.2648 64.6882 25.6778 64.1716 27.3235L54.722 57.4259C54.4754 58.2114 53.7447 58.7462 52.9181 58.7462H11.3399C9.41768 58.7462 8.72276 56.2218 10.3764 55.2462L61.4042 25.1438Z" fill="#1C1A31"/>
</svg>
