<svg width="80" height="80" viewBox="0 0 80 80" fill="none" xmlns="http://www.w3.org/2000/svg">
<path d="M68.3333 10L67.8 10.1L50 17L30 10L11.2 16.3333C10.5 16.5667 10 17.1667 10 17.9333V68.3333C10 69.2667 10.7333 70 11.6667 70L12.2 69.9L30 63L50 70L68.8 63.6667C69.5 63.4333 70 62.8333 70 62.0667V11.6667C70 10.7333 69.2667 10 68.3333 10ZM33.3333 18.2333L46.6667 22.9V61.7667L33.3333 57.1V18.2333ZM16.6667 21.5333L26.6667 18.1667V57.1667L16.6667 61.0333V21.5333ZM63.3333 58.4667L53.3333 61.8333V22.8667L63.3333 19V58.4667Z" fill="#2A374A"/>
</svg>
