<svg width="80" height="80" viewBox="0 0 80 80" fill="none" xmlns="http://www.w3.org/2000/svg">
<path d="M23.3334 46.6666C28.8667 46.6666 33.3334 42.2 33.3334 36.6666C33.3334 31.1333 28.8667 26.6666 23.3334 26.6666C17.8 26.6666 13.3334 31.1333 13.3334 36.6666C13.3334 42.2 17.8 46.6666 23.3334 46.6666ZM23.3334 33.3333C25.1667 33.3333 26.6667 34.8333 26.6667 36.6666C26.6667 38.5 25.1667 40 23.3334 40C21.5 40 20 38.5 20 36.6666C20 34.8333 21.5 33.3333 23.3334 33.3333ZM63.3334 23.3333H36.6667V50H10V16.6666H3.33337V66.6666H10V56.6666H70V66.6666H76.6667V36.6666C76.6667 29.3 70.7 23.3333 63.3334 23.3333ZM70 50H43.3334V30H63.3334C67 30 70 33 70 36.6666V50Z" fill="#2A374A"/>
</svg>
